<svg xmlns="http://www.w3.org/2000/svg" viewBox="0 0 141.93 186.29"><defs><style>.cls-1{fill:#48b2e8;}.cls-2{fill:#3e96db;}.cls-3{fill:#fff;}</style></defs><title>Asset 8</title><g id="Layer_2" data-name="Layer 2"><g id="Layer_2-2" data-name="Layer 2"><path class="cls-1" d="M0,27.65v139a19.62,19.62,0,0,0,31.15,15.88l102.44-74.39c11.23-8.15,11.18-31.62-.56-39l-102.94-58A19.62,19.62,0,0,0,0,27.65Z"/><path class="cls-2" d="M0,19.65v139a19.62,19.62,0,0,0,31.15,15.88l102.44-74.39a19.62,19.62,0,0,0-1.06-32.47L30.09,3.06A19.62,19.62,0,0,0,0,19.65Z"/><circle class="cls-3" cx="72.18" cy="74.1" r="12"/><circle class="cls-2" cx="74.37" cy="75.46" r="6.99" transform="translate(-13.33 134.91) rotate(-79.55)"/><path class="cls-3" d="M19.69,61.33s-9,29.92-3.56,50.13C20.61,128,41.2,148.64,41.2,148.64S30,131.62,23.3,106.27C19.69,92.63,19.69,61.33,19.69,61.33Z"/></g></g></svg>