<svg xmlns="http://www.w3.org/2000/svg" viewBox="0 0 649.16 122.39"><defs><style>.cls-1,.cls-4{fill:#3e96db;}.cls-1{stroke:#3e96db;}.cls-1,.cls-2{stroke-miterlimit:10;stroke-width:3.58px;}.cls-2,.cls-5{fill:#fff;}.cls-2{stroke:#fff;}.cls-3{fill:#48b2e8;}</style></defs><title>Asset 7</title><g id="Layer_2" data-name="Layer 2"><g id="Layer_3" data-name="Layer 3"><path class="cls-1" d="M117.78,2.79V20.35h11.41v14H117.78V70q0,4,1.42,5.68t5.43,1.72a26.6,26.6,0,0,0,5.24-.46V91.36a34.49,34.49,0,0,1-10.79,1.72q-18.75,0-19.12-20.26V34.34H90.21v-14H100V2.79Z"/><path class="cls-1" d="M179.09,84.5q-6.6,8.58-18.26,8.58-10.73,0-16.38-6.6t-5.77-19.34V20.35h17.83V66.53q0,11.17,9.5,11.17,9.07,0,12.46-6.74V20.35h17.89V91.76H179.58Z"/><path class="cls-1" d="M226.22,20.35l.56,8.25A22.74,22.74,0,0,1,246,19q10.61,0,15.79,6.67T267,45.63V91.76H249.22V46.09q0-6.07-2.47-8.81t-8.2-2.74q-7.53,0-11.29,6.86V91.76H209.44V20.35Z"/><path class="cls-1" d="M319.23,91.76a22.27,22.27,0,0,1-1.79-6.4,20.94,20.94,0,0,1-16.84,7.72q-9.81,0-16.25-6.07a20.14,20.14,0,0,1-6.45-15.31q0-11.35,7.86-17.42t22.73-6.14h8.2V44a12.32,12.32,0,0,0-2.38-7.92q-2.38-3-7.49-3a10.16,10.16,0,0,0-7.06,2.31,8.1,8.1,0,0,0-2.56,6.34H279.38A20.06,20.06,0,0,1,283,30.31,23.93,23.93,0,0,1,293.08,22a34.78,34.78,0,0,1,14.68-3q12.34,0,19.58,6.63t7.25,18.64v31q.06,10.16,2.65,15.38v1.12ZM304.49,78.49a14.54,14.54,0,0,0,7.28-1.88,11.93,11.93,0,0,0,4.93-5V59.29H310q-13.39,0-14.25,9.9l-.06,1.12a7.89,7.89,0,0,0,2.34,5.87A8.74,8.74,0,0,0,304.49,78.49Z"/><path class="cls-2" d="M365,20.35l.56,8Q372.65,19,384.74,19q12.89,0,17.7,10.89,7-10.89,20-10.89,10.86,0,16.16,6.76t5.3,20.36v45.6H426.06V46.22q0-6.07-2.22-8.88T416,34.54q-8,0-11.1,8.18l.06,49H387.14V46.29q0-6.2-2.28-9t-7.77-2.77a11.45,11.45,0,0,0-11,6.73V91.76H348.28V20.35Z"/><path class="cls-2" d="M496.32,91.76a22.27,22.27,0,0,1-1.79-6.4,20.94,20.94,0,0,1-16.84,7.72q-9.81,0-16.25-6.07A20.14,20.14,0,0,1,455,71.69q0-11.35,7.86-17.42t22.73-6.14h8.2V44a12.32,12.32,0,0,0-2.38-7.92q-2.38-3-7.49-3a10.16,10.16,0,0,0-7.06,2.31,8.1,8.1,0,0,0-2.56,6.34H456.47A20.06,20.06,0,0,1,460,30.31,23.93,23.93,0,0,1,470.16,22a34.78,34.78,0,0,1,14.68-3q12.34,0,19.58,6.63t7.25,18.64v31q.06,10.16,2.65,15.38v1.12ZM481.57,78.49a14.54,14.54,0,0,0,7.28-1.88,11.93,11.93,0,0,0,4.93-5V59.29h-6.66q-13.39,0-14.25,9.9l-.06,1.12a7.89,7.89,0,0,0,2.34,5.87A8.74,8.74,0,0,0,481.57,78.49Z"/><path class="cls-2" d="M549.36,64.76,561.7,20.35h19.12L554,102.85l-1.48,3.76q-6,14-19.74,14a26.37,26.37,0,0,1-7.9-1.25V104.89l2.71.07q5.06,0,7.56-1.65a10.77,10.77,0,0,0,3.92-5.48l2.1-5.87L517.78,20.35H537Z"/><path class="cls-2" d="M584.15,55.39A44.84,44.84,0,0,1,588,36.45a29.3,29.3,0,0,1,11-12.87A30.5,30.5,0,0,1,615.67,19q13.51,0,22.05,8.84t9.53,24l.12,4.88q0,16.43-8.57,26.37t-23,9.93q-14.43,0-23-9.9t-8.6-26.93ZM602,56.75q0,10.18,3.58,15.57a12.35,12.35,0,0,0,20.35.07q3.64-5.32,3.64-17,0-10-3.64-15.47a11.6,11.6,0,0,0-10.24-5.49,11.42,11.42,0,0,0-10.12,5.45Q602,45.31,602,56.75Z"/><path class="cls-3" d="M0,14.27V86c0,8.27,9.61,13,16.46,8.19L70.59,55.78c5.93-4.21,5.9-16.31-.3-20.13L15.9,5.7C9,1.45,0,6.3,0,14.27Z"/><path class="cls-4" d="M0,10.14v71.7c0,8.27,9.61,13,16.46,8.19L70.59,51.66A10,10,0,0,0,70,34.9L15.9,1.58C9-2.67,0,2.17,0,10.14Z"/><ellipse class="cls-5" cx="38.14" cy="38.23" rx="6.34" ry="6.19"/><path class="cls-4" d="M42.92,39.58a3.69,3.69,0,0,1-4.3,2.89,3.61,3.61,0,0,1-3-4.2A3.69,3.69,0,0,1,40,35.39,3.61,3.61,0,0,1,42.92,39.58Z"/><path class="cls-5" d="M10.4,31.64S5.63,47.07,8.52,57.5c2.37,8.55,13.25,19.18,13.25,19.18a80.83,80.83,0,0,1-9.46-21.86C10.4,47.79,10.4,31.64,10.4,31.64Z"/></g></g></svg>