<svg xmlns="http://www.w3.org/2000/svg" viewBox="0 0 244.25 90.52"><defs><clipPath id="clip-path"><path fill="none" d="M0 0h244.25v90.52H0z"/></clipPath><style>.cls-3{fill:red}</style></defs><g id="レイヤー_2" data-name="レイヤー 2"><g clip-path="url(#clip-path)" id="レイヤー_1-2" data-name="レイヤー 1"><path d="M216.26 39.75a11.57 11.57 0 002.57 1.44c-.92.45-1.67.87-2.07 1.12l-.28.21a10.77 10.77 0 00-3.4 3.71A15.63 15.63 0 00211.19 57c.29 1.76 1 3.42 1.94 7.47a43.57 43.57 0 011.49 9.53c0 4.23-1.58 6.82-3.46 8.36 3.43-.6 5.51-6 5.89-9.43.44-4.15-.49-8.31-1.38-12.37s-1.73-6.29-1.1-10.41c.51-3.36 2.34-6.64 4.92-8.2.17-.09.34-.19.51-.27a14.75 14.75 0 005 1.5c1.83 0 2.48-1.08 2.48-2s-.65-2-2.48-2a15.5 15.5 0 00-5.23 1.52 12.63 12.63 0 01-5.25-8.51c-.63-4.12.22-6.35 1.1-10.41s1.82-8.23 1.38-12.38c-.33-3.4-2.41-8.81-5.84-9.4 1.88 1.53 3.46 4.12 3.46 8.35a39.28 39.28 0 01-1.49 9.57c-2.35 9.32-1.84 15.1-.08 18.25a10.78 10.78 0 003.21 3.58m4.47 1.46a12.56 12.56 0 013.24-1.3c1.15-.24 2.12.25 2.12 1.29s-1.16 1.51-2.25 1.28a9.74 9.74 0 01-3.11-1.27M14.48 36.17c1.75-3.15 2.27-8.93-.08-18.25a39.28 39.28 0 01-1.49-9.57c0-4.23 1.57-6.82 3.46-8.35-3.43.59-5.52 6-5.89 9.42-.48 4.15.52 8.32 1.37 12.38s1.73 6.29 1.15 10.41a12.63 12.63 0 01-5.25 8.51 15.5 15.5 0 00-5.27-1.52C.65 39.2 0 40.28 0 41.2s.65 2 2.48 2a14.75 14.75 0 005-1.5c.17.08.34.18.5.27H8c2.57 1.56 4.41 4.84 4.92 8.19.62 4.13-.22 6.36-1.11 10.42S10 68.82 10.48 73c.37 3.48 2.46 8.83 5.89 9.43-1.89-1.54-3.46-4.13-3.46-8.36a43.57 43.57 0 011.49-9.56c.91-4.05 1.65-5.71 1.94-7.47a15.74 15.74 0 00-1.86-10.78 10.77 10.77 0 00-3.4-3.71 2.22 2.22 0 00-.29-.21c-.39-.25-1.15-.67-2.06-1.12a11.8 11.8 0 002.57-1.44 10.78 10.78 0 003.21-3.58M3.68 42.48c-1.08.23-2.25-.19-2.25-1.28s1-1.53 2.12-1.29a12.27 12.27 0 013.24 1.3 9.65 9.65 0 01-3.11 1.27M82.31 48.1l-1.51 2.12h6.76L85.86 48a24.06 24.06 0 012.24-8.77l6.71 9.1-1 1.87h6.48L90.5 37h-1.19c2.79-4.64 6.92-8 11.2-8.73V28h-6.79v.22s2 .86.47 2.33A22.42 22.42 0 0088.67 37h-3.11V5.55h-.34A14.11 14.11 0 0180 13.39v.32h2.32zm5.42-9.32a23.44 23.44 0 00-1.37 3.65c-.2.53-.79.63-.79-.17v-4.95a6.31 6.31 0 012.17 1.47M70.6 48.29v1.93h4.76l-1.51-2.12V37.39c0-4-3-7.3-8.74-7.14a8.62 8.62 0 00-7.73 5.43h3.84c.31-2.49 2.39-4.76 4.9-4.76 3.44 0 4.66 3 4.48 5.44v.12c0 .43-.35 1.13-1.43 1h-.25a9.37 9.37 0 00-7.44 1.31c-3.72 2.41-4.95 6.7-2.73 9.58s7 3.25 10.76.84a10.08 10.08 0 001.09-.83m-8.71 1C60.2 48.22 60.48 45 62.5 42s5-4.52 6.72-3.45 1.42 4.34-.61 7.31-5 4.53-6.72 3.46M71.57 20.7h-3.55l-3.62 7.28h.17l7-7.28zM48.05 32h3.4l1-.65H46v-8.49h-.4a11.3 11.3 0 01-6.42 8.45V32h3.2v13.68a4.83 4.83 0 005 5.22c2.34 0 4.82-1.66 5-4.12H52a3.17 3.17 0 01-2.83 2.89c-1.68 0-3.06-.84-3.14-3.84V34a2.08 2.08 0 012.02-2M106.27 45.43a2 2 0 000 .25 4.83 4.83 0 005 5.22c2.35 0 4.82-1.66 5-4.12h-.52c-.3 1.62-1.4 2.89-2.83 2.89a4.21 4.21 0 01-.62 0V32h3l1-.65h-6.51v-8.49h-.36a11.34 11.34 0 01-6.43 8.45V32h3.2zm5.73 4.11c-1.17-.34-2-1.37-2.08-3.7V34a2.09 2.09 0 012.08-2z"/><path d="M114.51 37.39a1.37 1.37 0 101.37-1.39 1.37 1.37 0 00-1.37 1.37M115.88 40.56a1.37 1.37 0 101.37 1.36 1.37 1.37 0 00-1.37-1.36M185.09 47.34a2.45 2.45 0 102.45 2.45 2.45 2.45 0 00-2.45-2.45M165.08 27.91a19.83 19.83 0 00-12.27 3.8 13.53 13.53 0 00-1.73 1.64 11.56 11.56 0 00-1 1.2l-.05.06v.06a11.17 11.17 0 000 12.57l.18-.32a11.12 11.12 0 01-1.78-6 10.2 10.2 0 011.89-5.79 14.65 14.65 0 011.24 3.87 11.59 11.59 0 01-1.47 8.48 4.3 4.3 0 01-3.74 2.17c-3.22 0-6.4-3.78-7.25-8.61a11.53 11.53 0 011.48-8.47 4.81 4.81 0 013.08-2.12 4.62 4.62 0 01.65-.05c1.91 0 3.8 1.27 5.32 3.59l.1.15.11-.14a14.52 14.52 0 011.81-1.85l.12-.1-.12-.1c-.2-.16-.26-.2-.47-.35a10.49 10.49 0 00-6.08-1.94 10.69 10.69 0 00-1.78.15 10.45 10.45 0 00-8.55 12.12 10.56 10.56 0 0012.23 8.6 10.35 10.35 0 004.27-1.77 16 16 0 007.17 4.32h.16a15.49 15.49 0 01-7.1-4.48 10.49 10.49 0 001.05-15.88c.21-.19.43-.38.66-.56a19.22 19.22 0 0111.92-3.68 23 23 0 014.14.36c6.72 2.21 7.59 8.09 7.61 12.19s-1.58 9.47-6.59 12.11a9.61 9.61 0 00-4 2.86c-.36.38-.72.3-.77-.14v-23.1l-4.53 4.45h1.26v53.31a35.43 35.43 0 011.56-6.06c.88-2 3.31-6.78 6.55-9.45 6.73-5.56 7.29-12.73 5.33-19.64 0 0 2.07 8.81-1.51 12.73-3.27 3.58-6.16 4.32-8.66 7V59.26c.48-2.71 2.12-4.44 5.35-5.74 7.52-3 11-7 11-12.55 0-7.57-7-13.06-16.74-13.06M106.43 13.41a10.29 10.29 0 004.27-3.05.22.22 0 000-.17.26.26 0 00-.09-.16 5.13 5.13 0 00-1.21-.73 1.05 1.05 0 00-.21 0 .25.25 0 00-.13 0 8.14 8.14 0 01-2.24 1.48l.24-.18a11 11 0 003-3.9c0-.24-.25-.32-.36-.36a.27.27 0 01-.11 0 1.6 1.6 0 01.44-.09c.43 0 1.16.32 1.16.65a1.9 1.9 0 01-.19.29.21.21 0 000 .25.21.21 0 00.19.11l.81-.12a.91.91 0 00.37-.16.45.45 0 01.25-.09c.27 0 1.23.46 1.23.66s-.15.18-.27.25a.86.86 0 00-.26.21c-.44.66-.83 1.19-1.22 1.67a.2.2 0 000 .18.21.21 0 00.1.16.89.89 0 01.48.73c0 .31-.11.64-.42.64a.58.58 0 01-.45-.33 2.5 2.5 0 00-.24-.36.22.22 0 00-.16-.09.2.2 0 00-.15.06 10 10 0 01-4.91 2.54h.11m4.12-5.47a.25.25 0 00-.18.08 9 9 0 01-.85.9.24.24 0 00-.06.23.25.25 0 00.17.16 12.42 12.42 0 011.4.4h.07a.21.21 0 00.18-.09 17.17 17.17 0 001-1.55.23.23 0 000-.24.22.22 0 00-.18-.1 4 4 0 00-.58.13 3.33 3.33 0 01-.6.13.66.66 0 01-.28 0 .15.15 0 00-.09 0M118.76 13.43c3.31-1.19 5.37-4.64 5.74-5.33a.21.21 0 000-.24.21.21 0 00-.18-.09 5.29 5.29 0 00-.54.13 3.76 3.76 0 01-.62.14.68.68 0 01-.32-.07h-.1a.23.23 0 00-.17.08 9.89 9.89 0 01-3.57 2.72l.23-.18a10.17 10.17 0 002.87-3.83c0-.22-.16-.35-.44-.4s.15-.12.43-.12c.45 0 1.22.37 1.22.65a.18.18 0 01-.06.14.77.77 0 00-.13.15.21.21 0 000 .25.21.21 0 00.19.11 4.84 4.84 0 00.79-.13 1.08 1.08 0 00.4-.17.5.5 0 01.26-.1c.29 0 1.27.53 1.29.75s-.15.19-.27.28a1 1 0 00-.28.23c-1.73 2.55-3.47 4.28-6.74 5h-.19l.14-.05M133 13.75c-.41 0-.64-.78-.64-1.19a.81.81 0 01.07-.33 1.39 1.39 0 00.1-.37c.07-.61.12-1.74.12-2.81 0-1.89 0-2.5-.58-2.51a1.56 1.56 0 01-.26 0 .94.94 0 01.54-.2c.38 0 1.36.33 1.36.6a.85.85 0 01-.07.26 2.05 2.05 0 00-.16.62c0 .31 0 .66-.06 1a.23.23 0 00.21.23c2.8.21 3.11 1 3.11 1.32a.58.58 0 01-.58.57.74.74 0 01-.55-.28l-.11-.13a4.52 4.52 0 00-1.77-1.39h-.09a.22.22 0 00-.22.23v.3c0 1.1.05 2.28.1 3.29 0 .8-.47.82-.53.82M147 13.69c-.28 0-.4-.18-.55-.44a1.24 1.24 0 00-.16-.24 6.44 6.44 0 00-1.26-.9h-.08.13a5.28 5.28 0 001.25.24c.12 0 .42 0 .46-.32s0-.88 0-1.47V10a.22.22 0 00-.15-.21h-.08a.28.28 0 00-.17.07 8.84 8.84 0 01-4.39 2.56 11.72 11.72 0 004.07-3.29.21.21 0 000-.25.21.21 0 00-.19-.11c-.52.1-1.05.22-1.58.37a2.1 2.1 0 01-.43.08c-.51 0-1.39-.57-1.39-.89 0-.06.07-.18.1-.18s0 0 .1.07a1.21 1.21 0 00.88.28c.57 0 3-.34 3-.34a.24.24 0 00.2-.24c-.06-.87-.1-1.35-.65-1.35a.59.59 0 01-.17 0 1 1 0 01.58-.2c.26 0 1.2.21 1.2.55a1.16 1.16 0 01-.11.39 2.35 2.35 0 00-.11.44.23.23 0 00.07.19.24.24 0 00.16.07L148 8a1.83 1.83 0 00.27-.08.79.79 0 01.35-.08c.38 0 1.13.21 1.13.52 0 .14-.14.29-.42.29H147.66a.22.22 0 00-.22.22v.29a21 21 0 00.18 2.83 1.32 1.32 0 000 .23.85.85 0 01.07.36c0 .61-.36 1.2-.73 1.2M155.43 10.43c-.51 0-1.11-.76-1.11-1.15a.45.45 0 01.1-.23 1.36 1.36 0 00.35.39 2 2 0 001.12.16c.75 0 2.9-.08 3.78-.11h.43c1.19 0 1.32.21 1.32.31 0 .37-.92.4-1.73.42a31.92 31.92 0 00-3.88.17 2.82 2.82 0 01-.38 0M165.06 12.64a8.06 8.06 0 002.62-4 .42.42 0 00-.46-.42h-.11a.66.66 0 01.45-.15c.52 0 1.42.47 1.42.69 0 .07-.07.15-.15.25a2.16 2.16 0 00-.21.29 6.49 6.49 0 01-3.62 3.39h.07m7.56-.4c-.3 0-.5-.32-.59-.61a7.14 7.14 0 00-2.15-3.45l-.15-.23.25.12c2.13 1.07 3.28 2.46 3.28 3.22 0 .54-.33.86-.65.86m-.06-3.62a.92.92 0 01-1-.85 1 1 0 012 0 .92.92 0 01-1 .85m0-1.47a.66.66 0 00-.7.63.71.71 0 001.4 0 .66.66 0 00-.7-.63M177.63 13a12.78 12.78 0 005.14-5 .24.24 0 00-.11-.28.2.2 0 00-.11 0 .23.23 0 00-.18.09l-.3.11c-.25.09-.65.24-1.28.51a1.65 1.65 0 01-.58.16c-.58 0-1.32-.59-1.32-.88a.24.24 0 01.12-.21l.11.09a1.23 1.23 0 00.8.25 4.07 4.07 0 00.47 0l.62-.1c.39-.07.82-.15 1.25-.2a.86.86 0 00.43-.19.38.38 0 01.26-.11c.31 0 1.32.53 1.34.75 0 .07-.14.16-.26.24a1.3 1.3 0 00-.31.26c-.35.48-.76 1-1.23 1.56a.23.23 0 00-.05.21.24.24 0 00.15.16c1.34.43 2.4 1.11 2.56 1.64a1.33 1.33 0 010 .3.6.6 0 01-.57.65.6.6 0 01-.51-.36 5.5 5.5 0 00-1.73-2.2.33.33 0 00-.13 0 .2.2 0 00-.16.07A8.91 8.91 0 01177.5 13l.13-.05M41.23 61.05h1v.09c-.13.08-.17.23-.09.46l.86 2.1.82-2.15c.08-.23 0-.37-.08-.41v-.09h.83v.09a.48.48 0 00-.22.15 3.69 3.69 0 00-.19.35L43 64.25h-.39l-1-2.62a3.25 3.25 0 00-.17-.33.91.91 0 00-.23-.16zM44.64 63.12a1.17 1.17 0 01.36-.89 1.25 1.25 0 01.88-.31 1.21 1.21 0 01.86.31 1.14 1.14 0 01.37.89 1.16 1.16 0 01-.37.89 1.26 1.26 0 01-.86.31A1.29 1.29 0 0145 64a1.18 1.18 0 01-.36-.89m1.9 0a1.43 1.43 0 00-.19-.71.61.61 0 00-.52-.27.58.58 0 00-.49.31 1.29 1.29 0 00-.13.71 1.34 1.34 0 00.19.71.59.59 0 00.51.27.55.55 0 00.49-.3 1.34 1.34 0 00.14-.72M50.84 62.87a1.35 1.35 0 00-.05-.4c-.06-.16-.21-.23-.46-.23a.82.82 0 00-.49.16 2.22 2.22 0 010 .34v.88a1.25 1.25 0 000 .34.58.58 0 00.21.2v.09h-1v-.09a.58.58 0 00.21-.2 1.25 1.25 0 000-.34v-.72a1.22 1.22 0 00-.06-.47.44.44 0 00-.43-.19.73.73 0 00-.49.17v1.21a1.25 1.25 0 000 .34.58.58 0 00.21.2v.09h-1v-.09a.58.58 0 00.21-.2 1.25 1.25 0 000-.34v-.84a1.05 1.05 0 00-.06-.4.49.49 0 00-.19-.19v-.1l.76-.17v.38l.48-.33a1.32 1.32 0 01.37 0 .61.61 0 01.59.39l.48-.34a1.29 1.29 0 01.35 0 .7.7 0 01.55.22.94.94 0 01.16.59v.89a.94.94 0 000 .34.58.58 0 00.21.2v.09h-1v-.09a.68.68 0 00.21-.2 1.25 1.25 0 000-.34zM55.8 64.25v-.09a.67.67 0 00.21-.23 1 1 0 00.06-.39v-1h-1.55v1a1 1 0 00.06.39.67.67 0 00.21.23v.09h-1.08v-.09a.59.59 0 00.21-.23.82.82 0 00.07-.39v-1.77a.9.9 0 00-.07-.4.67.67 0 00-.21-.23v-.09h1.08v.09a.78.78 0 00-.21.23 1.09 1.09 0 00-.06.4v.56h1.55v-.56a1.09 1.09 0 00-.06-.4.78.78 0 00-.21-.23v-.09h1.08v.09a.58.58 0 00-.21.23.9.9 0 00-.07.4v1.77a.82.82 0 00.07.39.52.52 0 00.21.23v.09zM57.69 63.94a1.13 1.13 0 01-.29-.77 1.28 1.28 0 01.33-.88 1.16 1.16 0 01.9-.37 1 1 0 01.74.28 1 1 0 01.27.71l-1.7.23a.87.87 0 00.21.59 1 1 0 00.72.26 1.66 1.66 0 00.78-.33h.05l-.44.5a1.52 1.52 0 01-.58.13 1.33 1.33 0 01-1-.38m1.37-1.16a1.15 1.15 0 00-.08-.41.45.45 0 00-.43-.26.55.55 0 00-.51.27 1.25 1.25 0 00-.11.55zM60.94 63.62A1.25 1.25 0 0061 64a.68.68 0 00.21.2v.09h-1v-.09a.58.58 0 00.21-.2 1.25 1.25 0 000-.34v-.84a1.05 1.05 0 00-.06-.4.49.49 0 00-.19-.19v-.1l.76-.17v.47l.26-.32a1.93 1.93 0 01.75-.15v.55h-.1a.58.58 0 00-.43-.14.63.63 0 00-.48.24zM64.6 64.25h-2.07v-.09l1.36-1.94h-.54a.44.44 0 00-.23.06l-.37.28h-.11V62h1.93v.09L63.21 64h.69a.38.38 0 00.22-.06l.37-.28h.11zM65.34 63.94a1.13 1.13 0 01-.29-.77 1.28 1.28 0 01.33-.88 1.16 1.16 0 01.9-.37 1 1 0 01.74.28 1 1 0 01.27.71l-1.71.23a.88.88 0 00.22.59 1 1 0 00.72.26 1.7 1.7 0 00.78-.33l-.43.5a1.53 1.53 0 01-.59.13 1.3 1.3 0 01-1-.38m1.37-1.16a1 1 0 00-.09-.41.43.43 0 00-.42-.26.54.54 0 00-.51.27 1.25 1.25 0 00-.11.55zM69.52 62.9a1.17 1.17 0 00-.06-.45.44.44 0 00-.44-.21 1 1 0 00-.3 0 .58.58 0 00-.24.13v1.21a1.25 1.25 0 000 .34.58.58 0 00.21.2v.09h-1v-.09a.58.58 0 00.21-.2 1.25 1.25 0 000-.34v-.84a1.05 1.05 0 00-.06-.4.49.49 0 00-.19-.19v-.1l.76-.17v.37L69 62a1.5 1.5 0 01.37 0c.44 0 .66.28.66.82v.88a.9.9 0 000 .34.53.53 0 00.2.2v.09h-1v-.09a.58.58 0 00.21-.2.94.94 0 000-.34zM71.02 62.82h6.73v.29h-6.73zM82.77 63.54v-2l-1.21 1.8h-.21l-1.17-1.83v2a1.2 1.2 0 000 .35.75.75 0 00.19.27v.09h-.79v-.09a.67.67 0 00.2-.27 1.69 1.69 0 000-.35v-1.74a1.61 1.61 0 000-.35.64.64 0 00-.2-.28v-.09h.88l1.09 1.69 1.14-1.69h.84v.09a.78.78 0 00-.21.23 1.09 1.09 0 00-.06.4v1.77a1 1 0 00.06.39.67.67 0 00.21.23v.09h-1.04v-.09a.52.52 0 00.21-.23.82.82 0 00.07-.39M84.1 63.12a1.14 1.14 0 01.37-.89 1.22 1.22 0 01.87-.31 1.24 1.24 0 01.87.31 1.17 1.17 0 01.36.89 1.18 1.18 0 01-.36.89 1.28 1.28 0 01-.87.31 1.27 1.27 0 01-.87-.31 1.16 1.16 0 01-.37-.89m.37-1.87a.22.22 0 01.09-.19.32.32 0 01.42 0 .25.25 0 01.09.19.28.28 0 01-.09.19.32.32 0 01-.42 0 .25.25 0 01-.09-.19M86 63.1a1.34 1.34 0 00-.19-.71.59.59 0 00-.51-.27.54.54 0 00-.49.31 1.28 1.28 0 00-.14.71 1.5 1.5 0 00.2.71.58.58 0 00.51.27.56.56 0 00.49-.3 1.35 1.35 0 00.13-.72m-.39-1.85a.24.24 0 01.08-.19.33.33 0 01.22-.08.32.32 0 01.21.08.25.25 0 01.09.19.28.28 0 01-.09.19.32.32 0 01-.21.08.33.33 0 01-.22-.08.27.27 0 01-.08-.19M87.26 63.93a1.46 1.46 0 01.12-1.62 1.06 1.06 0 011.43-.2L89 62h.65v.09a.66.66 0 00-.28.63v1.44A1 1 0 0189 65a1.42 1.42 0 01-.86.26 5.5 5.5 0 01-.88-.1v-.56h.11l.54.35a.47.47 0 00.24.07.68.68 0 00.51-.2 1 1 0 00.19-.63v-.14l-.46.24a1.69 1.69 0 01-.33 0 .89.89 0 01-.76-.39m.54-.19a.92.92 0 00.73.26h.28v-1.7a.79.79 0 00-1 .15 1.07 1.07 0 00-.23.68.91.91 0 00.21.64M90.19 63.94a1.13 1.13 0 01-.29-.77 1.28 1.28 0 01.33-.88 1.16 1.16 0 01.9-.37 1.07 1.07 0 01.75.28 1 1 0 01.26.71l-1.7.23a.83.83 0 00.22.59 1 1 0 00.71.26 1.62 1.62 0 00.78-.33l-.44.5a1.48 1.48 0 01-.58.13 1.33 1.33 0 01-1-.38m1.38-1.16a1.16 1.16 0 00-.09-.41.45.45 0 00-.43-.26.52.52 0 00-.5.27 1.12 1.12 0 00-.12.55zM94.08 63.94a1.13 1.13 0 01-.29-.77 1.32 1.32 0 01.32-.88 1.19 1.19 0 01.9-.37 1.05 1.05 0 01.75.28 1 1 0 01.27.71l-1.71.23a.88.88 0 00.22.59 1 1 0 00.71.26 1.69 1.69 0 00.79-.33l-.43.5a1.53 1.53 0 01-.59.13 1.3 1.3 0 01-1-.38m1.37-1.16a1 1 0 00-.09-.41.44.44 0 00-.42-.26.54.54 0 00-.51.27 1.12 1.12 0 00-.11.55zM97.68 63.46c-.11-.07-.29-.16-.52-.28a1.74 1.74 0 01-.43-.29.58.58 0 01-.12-.36.54.54 0 01.21-.43.9.9 0 01.57-.18 2 2 0 01.37 0 3.37 3.37 0 01.48.12v.48h-.11l-.42-.33a.59.59 0 00-.29-.1.45.45 0 00-.24.06.23.23 0 00-.11.19.3.3 0 00.15.24l.4.22.38.2a.65.65 0 01.37.6.64.64 0 01-.21.49 1.14 1.14 0 01-.74.21 2.33 2.33 0 01-.53-.07l-.31-.09v-.47h.1l.42.33a.63.63 0 00.28.1.65.65 0 00.39-.11.28.28 0 00.11-.23.42.42 0 00-.21-.32M41.24 68.64h1v.1c-.12 0-.16.16-.12.33l.45 1.26.64-1.69h.27l.62 1.69.49-1.33a.22.22 0 00-.1-.3v-.1h.76v.1c-.13 0-.26.17-.39.5l-.68 1.67h-.34l-.6-1.53-.61 1.53h-.33l-.7-1.77a.61.61 0 00-.36-.4zM46.55 70.28a1.31 1.31 0 000 .34.5.5 0 00.21.19v.1h-1v-.1a.5.5 0 00.21-.19 1.31 1.31 0 000-.34v-.84A1 1 0 0046 69a.58.58 0 00-.19-.2v-.09l.76-.18zM46 67.82a.3.3 0 01.1-.21.33.33 0 01.24-.08.34.34 0 01.23.08.29.29 0 010 .42.35.35 0 01-.23.09.34.34 0 01-.24-.09.3.3 0 01-.1-.21M47.61 70.6a1.16 1.16 0 01-.29-.78 1.28 1.28 0 01.33-.87 1.17 1.17 0 01.9-.38 1 1 0 01.74.28 1 1 0 01.27.71l-1.71.23a.9.9 0 00.22.6 1 1 0 00.72.26 1.75 1.75 0 00.78-.34l-.43.51a1.52 1.52 0 01-.59.12 1.3 1.3 0 01-1-.37M49 69.44a1 1 0 00-.09-.42.42.42 0 00-.42-.25.54.54 0 00-.49.23 1.24 1.24 0 00-.11.54zM52.62 70.91H52a.4.4 0 01-.12-.23l-.47.26a1.51 1.51 0 01-.32 0 .89.89 0 01-.82-.44 1.4 1.4 0 01.22-1.64 1.1 1.1 0 01.78-.32 1.17 1.17 0 01.61.17v-.36a1 1 0 00-.08-.35.51.51 0 00-.19-.2v-.1l.76-.17v2.75a1.87 1.87 0 000 .27.42.42 0 00.23.26zm-1.78-1.83a1 1 0 00-.22.68.9.9 0 00.23.64 1 1 0 00.72.26h.29v-1.77a1.18 1.18 0 00-.37-.08.87.87 0 00-.65.27M53.32 70.6a1.16 1.16 0 01-.29-.78 1.28 1.28 0 01.33-.87 1.17 1.17 0 01.9-.38 1.07 1.07 0 01.75.28 1 1 0 01.26.71l-1.7.23a.86.86 0 00.22.6 1 1 0 00.71.26 1.66 1.66 0 00.78-.34l-.44.51a1.47 1.47 0 01-.58.12 1.32 1.32 0 01-1-.37m1.38-1.16a1.17 1.17 0 00-.09-.42.45.45 0 00-.43-.25.52.52 0 00-.5.27 1.11 1.11 0 00-.12.54zM56.57 70.28a1.31 1.31 0 000 .34.57.57 0 00.21.19v.1h-1v-.1a.5.5 0 00.21-.19 1 1 0 000-.34v-.84A1 1 0 0056 69a.58.58 0 00-.19-.2v-.09l.76-.18V69l.26-.31a2 2 0 01.75-.16v.55h-.1a.58.58 0 00-.43-.13.63.63 0 00-.48.24zM61.48 70.91h-2.07v-.1l1.36-1.94h-.55a.44.44 0 00-.22.07l-.37.28h-.11v-.58h1.92v.1l-1.35 1.94h.69a.38.38 0 00.22-.06l.37-.28h.11zM63.79 69.44a1 1 0 00-.06-.4c0-.07-.1-.13-.19-.2v-.09l.76-.18v1.71a1 1 0 000 .27.42.42 0 00.23.26v.1h-.65a.57.57 0 01-.11-.24l-.41.27a1.24 1.24 0 01-.27 0 .92.92 0 01-.71-.21.89.89 0 01-.15-.59v-.73a1.24 1.24 0 00-.06-.4.7.7 0 00-.19-.2v-.09l.76-.18V70a.8.8 0 00.1.48q.12.18.54.18a1.07 1.07 0 00.38-.11zM68.5 70.91v-.1a.5.5 0 00.21-.22 1.07 1.07 0 00.06-.39v-1h-1.55v1a1.07 1.07 0 00.06.39.52.52 0 00.22.22v.1h-1.09v-.1a.5.5 0 00.21-.22.88.88 0 00.07-.39v-1.78a.85.85 0 00-.07-.39.59.59 0 00-.21-.23v-.09h1.09v.09a.61.61 0 00-.22.23 1 1 0 00-.06.39V69h1.55v-.57a1 1 0 00-.06-.39.59.59 0 00-.21-.23v-.09h1.08v.09a.59.59 0 00-.21.23 1 1 0 00-.07.39v1.77a1 1 0 00.07.39.5.5 0 00.21.22v.1zM70.45 70.6a1.16 1.16 0 01-.29-.78 1.28 1.28 0 01.33-.87 1.16 1.16 0 01.89-.38.95.95 0 011 1l-1.71.23a.9.9 0 00.22.6 1 1 0 00.71.26 1.73 1.73 0 00.79-.34l-.43.51a1.52 1.52 0 01-.59.12 1.3 1.3 0 01-1-.37m1.37-1.16a1 1 0 00-.09-.42.43.43 0 00-.42-.25.54.54 0 00-.51.27 1.24 1.24 0 00-.11.54zM73.65 70.28a1.4 1.4 0 000 .34.54.54 0 00.22.19v.1h-1v-.1a.5.5 0 00.21-.19 1 1 0 000-.34v-.84a1 1 0 00-.06-.4.5.5 0 00-.19-.2v-.09l.77-.18V69l.25-.31a2 2 0 01.75-.16v.55h-.1a.58.58 0 00-.43-.13.59.59 0 00-.47.24zM77.2 70.91h-2.08v-.1l1.36-1.94h-.54a.41.41 0 00-.22.07l-.38.28h-.1v-.58h1.92v.1l-1.36 1.94h.69a.44.44 0 00.23-.06l.37-.28h.11zM78 70.6a1.16 1.16 0 01-.29-.78 1.28 1.28 0 01.33-.87 1.17 1.17 0 01.9-.38 1 1 0 01.74.28 1 1 0 01.27.71l-1.7.23a.9.9 0 00.21.6 1 1 0 00.72.26 1.71 1.71 0 00.78-.34l-.44.51A1.47 1.47 0 0179 71a1.32 1.32 0 01-1-.37m1.37-1.16a1.16 1.16 0 00-.08-.42.45.45 0 00-.43-.25.52.52 0 00-.5.27 1.11 1.11 0 00-.12.54zM82.17 69.55a1 1 0 00-.07-.44.43.43 0 00-.44-.22 1 1 0 00-.29 0 .75.75 0 00-.24.12v1.22a1.31 1.31 0 000 .34.44.44 0 00.21.19v.1h-1v-.1a.41.41 0 00.2-.19.94.94 0 00.05-.34v-.84a1 1 0 00-.06-.4.7.7 0 00-.19-.2v-.09l.76-.18V69l.52-.33a1.5 1.5 0 01.37-.05c.44 0 .66.28.66.83v.88a.94.94 0 000 .34.41.41 0 00.2.19v.1h-1v-.1a.5.5 0 00.21-.19 1.31 1.31 0 000-.34zM85.07 70.59a1.43 1.43 0 01-.19-.72 1.39 1.39 0 01.31-.9 1.07 1.07 0 01.85-.4 1 1 0 01.58.2l.14-.13h.65v.1a.65.65 0 00-.28.63v1.43a1.07 1.07 0 01-.36.85 1.4 1.4 0 01-.86.26 5.5 5.5 0 01-.88-.1v-.56h.11l.54.36a.47.47 0 00.24.07.62.62 0 00.51-.21.91.91 0 00.19-.63v-.13l-.46.23a1.66 1.66 0 01-.32 0 .91.91 0 01-.77-.38m.54-.19a.93.93 0 00.73.26h.28v-1.7a.71.71 0 00-.39-.12.8.8 0 00-.6.27 1 1 0 00-.22.68.94.94 0 00.2.64M88.11 70.6a1.16 1.16 0 01-.29-.78 1.28 1.28 0 01.33-.87 1.17 1.17 0 01.9-.38 1.07 1.07 0 01.75.28 1 1 0 01.26.71l-1.7.23a.86.86 0 00.22.6 1 1 0 00.71.26 1.66 1.66 0 00.78-.34h.05l-.44.51a1.47 1.47 0 01-.58.12 1.32 1.32 0 01-1-.37m1.38-1.16a1.17 1.17 0 00-.08-.41.45.45 0 00-.43-.25.52.52 0 00-.5.27 1.11 1.11 0 00-.12.54zM92.37 69.55a1.15 1.15 0 00-.06-.44.44.44 0 00-.44-.22 1 1 0 00-.3 0 .75.75 0 00-.24.12v1.22a1.31 1.31 0 000 .34.5.5 0 00.21.19v.1h-1v-.1a.5.5 0 00.21-.19 1.31 1.31 0 000-.34v-1.9a1 1 0 00-.06-.39.51.51 0 00-.19-.2v-.04l.76-.17V69l.41-.31a1.46 1.46 0 01.42-.08c.48 0 .72.28.72.83v.88a.94.94 0 00.05.34.46.46 0 00.2.19v.1h-1v-.1a.5.5 0 00.21-.19 1 1 0 000-.34zM93.77 70.6a1.16 1.16 0 01-.29-.78 1.28 1.28 0 01.33-.87 1.17 1.17 0 01.9-.38 1.07 1.07 0 01.75.28 1 1 0 01.26.71l-1.7.23a.86.86 0 00.22.6 1 1 0 00.71.26 1.66 1.66 0 00.78-.34l-.44.51a1.47 1.47 0 01-.58.12 1.32 1.32 0 01-1-.37m1.38-1.16a1.17 1.17 0 00-.09-.42.45.45 0 00-.43-.25.52.52 0 00-.5.27 1.11 1.11 0 00-.12.54zM98 69.55a1.11 1.11 0 00-.07-.44.43.43 0 00-.44-.22 1.11 1.11 0 00-.3 0 .79.79 0 00-.23.12v1.22a1.4 1.4 0 000 .34.54.54 0 00.22.19v.1h-1v-.1a.5.5 0 00.21-.19 1 1 0 000-.34v-.84a1 1 0 00-.06-.4.5.5 0 00-.19-.2v-.09l.77-.18V69l.51-.33a1.58 1.58 0 01.38-.05c.43 0 .66.28.66.83v.88a1 1 0 000 .34.44.44 0 00.21.19v.1h-1v-.1a.53.53 0 00.2-.19.94.94 0 000-.34zM99.32 70.67a.28.28 0 01.1-.22.36.36 0 01.24-.08.41.41 0 01.24.08.32.32 0 01.1.22.3.3 0 01-.1.22.41.41 0 01-.24.08.36.36 0 01-.24-.08.27.27 0 01-.1-.22"/><path class="cls-3" d="M169.68 64a.31.31 0 01-.24-.06.36.36 0 01-.08-.18 1.76 1.76 0 011.34-1.59.4.4 0 01.27.07.21.21 0 01.07.15 1.81 1.81 0 01-1.36 1.61"/><path class="cls-3" d="M243.52 49.83a3.77 3.77 0 00-2.62-.37 32.71 32.71 0 00-4.9 1.09c-9.64 2.74-20.28 7.87-29.25 12.79-3.85 2-6.66 3.84-7.83 4.58-3 1.87-8.84 6-10 6.81 3.53-4.59 6.67-9.06 6.65-8.88a1 1 0 00-.61-.84c-.26 0-.43.07-.89.52s-.49 1-.72 1.3c-1.81 2.53-4.54 4.84-6.66 5.08-.7.08-1 0-.63-1a11.74 11.74 0 013.87-4.66.53.53 0 00.15-.27c0-.19-.2-.64-.33-.64a2.58 2.58 0 00-.79.29c-.63.59-1.91 2.64-3.13 4.22-2.95 2.5-4.74 3-6.09 2.88a1 1 0 01-.89-1.08c0-.79.4-1.83 2.24-3.66.07-.07 1.18-.86 1.19-1.08s-.17-.78-.46-.77a2.14 2.14 0 00-.9.31c-.06.07-.13.59-.42.81-1.58 1.19-6.27 4.4-6.32 4.4s-.06 0-.06-.06a34 34 0 002.52-3.6 2.68 2.68 0 00.77-1.48c0-.42-.7-.6-.83-.62a.52.52 0 00-.32.07c-.23.11-.5.78-.5.78-.95.58-3 2.71-5.6 4.37-3.37 2.2-6.16 2.59-6.43 1.18-.25-1.23 2-3.67 3.1-4.69.1-.1.82-.3.9-.37a1.19 1.19 0 00.4-.78.59.59 0 00-.52-.53 5.25 5.25 0 00-1.14.86 22.79 22.79 0 00-3.25 3.67c-3.23 2.26-5.13 2.82-6.33 2.59a1.29 1.29 0 01-1.15-1.56c.12-1.81 2.22-4.06 3.9-6a27.08 27.08 0 012-2.1c2 0 3.34-.27 4.31-.14.73.1 1.25-.17 1.37-.48 0 0 0-.52-.43-.57a7.18 7.18 0 00-1.31.21c-.95 0-1.72.08-3.21.14 2-2.46 4.42-5.29 5.29-6.31.14-.17 0-.89-.4-.86a1.48 1.48 0 00-1.16.81 1.73 1.73 0 01-.32.8c-1.27 1.48-3.93 4.91-4.51 5.59l-4.14.2c-.32 0-1.13.12-1.15.43s.3.39.46.38c1 0 1.47-.1 2.12-.12h2s-4.33 4.47-5.84 7.47c-1 .88-4.59 3.27-7.73 2.67 2.52-1.21 3.24-5.29 4.35-6.63a.24.24 0 00.07-.19.84.84 0 00-.58-.84c-.32 0-.73.12-1.33.86-.33.4-.63 1.14-.76 1.26-4 3.64-9.49 5.68-11 5.7-1.84 0-1.49-1.59-1.07-2.28 2-.84 6.3-2.68 6.38-4.08 0-.34-.48-1-.81-.92-6.2.94-8.3 8.32-5.2 8.25 5.53-.12 12.41-6.7 12.44-6.7s.12.15.11.36c-.07 1.16-1.47 4.58-3.11 4.62-.45 0-.75.11-.9-.5a.19.19 0 00-.18-.15c-.39 0-.9-.14-1.09.7s1 1.43 2.63 1.41a13.48 13.48 0 007.67-2.63c-.16.41-.32 2.12 1.84 2.18s3.75-.79 6.46-2.51a3.34 3.34 0 00-.36 1.14c-.05.8.36 1.35 1.7 1.31 5.66-.15 11.15-6.52 11.4-6.25.41.44-2.42 3.74-3.13 4.4-.38.35-1 .81-1 1.14 0 .1 0 .53.12.56.45.14 1-.26 1.17-.29a5.83 5.83 0 01.87-.93c.47-.28 5.77-4 5.73-4-1.32 1.65-1.85 3-1.78 3.76.1.88.72 1.16 1.65 1.19 1.9.07 3.92-.93 6-2.51-.71 1.35.09 1.94.62 1.94 3.23.14 6.38-4 6.38-4-1.16 1.5-3.19 4.34-5.31 7.22-6.75 4.73-9.06 7.92-9.14 9.16a.82.82 0 00.75 1c1.19 0 5.28-4.63 9.19-9.7 1.22-.86 9.69-7.17 13.86-9.64 1.21-.72 6.67-3.71 7.19-4 9.49-4.94 20.6-10.22 30.77-12.62a7.59 7.59 0 012.76-.18c.6.09 1.08.43 1.07 1.07a2.47 2.47 0 01-.67 1.34 2.84 2.84 0 00-1.55.76c-.06.09-.46.55-.33 1a1 1 0 00.59.07 4.41 4.41 0 002.79-2.75 1.52 1.52 0 00-.67-1.73m-101.8 17.26a.14.14 0 01.15.12c-.05.77-2.47 2.32-4.76 3.15 1.16-1.62 3.52-3.24 4.61-3.27m37.29 17.51c-.1 0-.16-.06-.15-.18 0-.74 1.72-3 6.93-7-2.69 3.45-5.6 7.11-6.78 7.14M130.07 48.76c-10.66 0-17 9-18.07 14.4a6.49 6.49 0 004.83 7.69c-.87.93-2.93 3.18-5.23 5.52-6.2.44-8.31 1.32-10.79 2.67S95 83.77 95.54 85.8c.22.86 1.54 2.27 5.2.74 3-1.22 8-5.94 11.56-9.64l1.29-.07a62.11 62.11 0 006.28-.51c6.49-.86 16.26-4 19.21-14.12.92-3.12 1.17-13.44-9-13.45m-24.2 32.66a27.46 27.46 0 01-6.18 4.38c-2.29.86-2.84.28-3.06-.2-.63-1.35 1.5-3.86 4-5.55A21.23 21.23 0 01111 77a65.3 65.3 0 01-5.13 4.45m32.07-19.28a18.21 18.21 0 01-6.26 9c-3.05 2.5-7.62 4.49-18.11 5.11h-.7c2.54-2.66 4.48-4.9 4.82-5.25 0 0 .83.13 2.08.13 5.25 0 9.35-4.08 9.57-4.8v-.1-.11a1.14 1.14 0 00-.3.21 14.17 14.17 0 01-9 4.25 4.88 4.88 0 01-1.81-.19s.87-1 2.14-2.44c3.66-3.85 7.26-7.77 9.8-10.85a4.48 4.48 0 00.79-.57 1 1 0 00.29-1.13c-.21-.5-1 .32-1.19.57 0 0-6 6.95-12.72 14.21a5.77 5.77 0 01-4.29-6.7c1-7.58 10.3-14.49 17-14.14 9 .46 8.77 9.59 7.81 12.75"/></g></g></svg>